<svg xmlns="http://www.w3.org/2000/svg" xmlns:xlink="http://www.w3.org/1999/xlink" width="500" zoomAndPan="magnify" viewBox="0 0 375 374.999991" height="500" preserveAspectRatio="xMidYMid meet" version="1.0"><defs><clipPath id="f5048dbbed"><path d="M 37.5 97.5 L 337.5 97.5 L 337.5 277.5 L 37.5 277.5 Z M 37.5 97.5 " clip-rule="nonzero"/></clipPath></defs><g clip-path="url(#f5048dbbed)"><path fill="#000000" d="M 44.484375 100.085938 C 46.921875 98.46875 49.847656 97.527344 52.992188 97.527344 L 322.007812 97.527344 C 325.53125 97.527344 328.78125 98.710938 331.382812 100.703125 L 187.585938 178.746094 Z M 335.597656 269.425781 C 336.777344 267.246094 337.449219 264.75 337.449219 262.09375 L 337.449219 114.859375 L 248.738281 162.15625 Z M 37.550781 113.800781 L 37.550781 262.09375 C 37.550781 263.457031 37.730469 264.78125 38.0625 266.042969 L 126.433594 162.164062 Z M 234.90625 169.914062 L 191.363281 194.332031 C 190.191406 194.988281 188.890625 195.316406 187.589844 195.316406 C 186.289062 195.316406 184.984375 194.988281 183.8125 194.332031 L 140.265625 169.921875 L 49.003906 277.011719 C 50.277344 277.351562 51.613281 277.535156 52.992188 277.535156 L 322.007812 277.535156 C 322.105469 277.535156 322.203125 277.53125 322.304688 277.527344 Z M 234.90625 169.914062 " fill-opacity="1" fill-rule="nonzero"/></g></svg>