<svg xmlns="http://www.w3.org/2000/svg" xmlns:xlink="http://www.w3.org/1999/xlink" width="500" zoomAndPan="magnify" viewBox="0 0 375 374.999991" height="500" preserveAspectRatio="xMidYMid meet" version="1.0"><defs><clipPath id="abbac26f91"><path d="M 36.953125 37.5 L 337.703125 37.5 L 337.703125 337.5 L 36.953125 337.5 Z M 36.953125 37.5 " clip-rule="nonzero"/></clipPath></defs><g clip-path="url(#abbac26f91)"><path fill="#ffffff" d="M 337.738281 188.066406 C 337.738281 104.90625 270.410156 37.5 187.355469 37.5 C 104.300781 37.5 36.957031 104.90625 36.957031 188.066406 C 36.957031 258.675781 85.511719 317.933594 151.015625 334.203125 L 151.015625 234.082031 L 120 234.082031 L 120 188.066406 L 151.015625 188.066406 L 151.015625 168.242188 C 151.015625 117 174.179688 93.242188 224.433594 93.242188 C 233.964844 93.242188 250.40625 95.109375 257.128906 96.988281 L 257.128906 138.6875 C 253.578125 138.3125 247.410156 138.121094 239.753906 138.121094 C 215.09375 138.121094 205.5625 147.472656 205.5625 171.785156 L 205.5625 188.054688 L 254.683594 188.054688 L 246.246094 234.066406 L 205.5625 234.066406 L 205.5625 337.511719 C 280.035156 328.511719 337.738281 265.027344 337.738281 188.054688 Z M 337.738281 188.066406 " fill-opacity="1" fill-rule="nonzero"/></g></svg>