<svg xmlns="http://www.w3.org/2000/svg" xmlns:xlink="http://www.w3.org/1999/xlink" width="500" zoomAndPan="magnify" viewBox="0 0 375 374.999991" height="500" preserveAspectRatio="xMidYMid meet" version="1.0"><defs><clipPath id="6ad50b8401"><path d="M 37.5 36.953125 L 338.25 36.953125 L 338.25 337.703125 L 37.5 337.703125 Z M 37.5 36.953125 " clip-rule="nonzero"/></clipPath></defs><g clip-path="url(#6ad50b8401)"><path fill="#ffffff" d="M 125.558594 37.988281 C 109.5625 38.738281 98.640625 41.300781 89.09375 45.042969 C 79.207031 48.894531 70.832031 54.050781 62.503906 62.421875 C 54.160156 70.796875 49.03125 79.183594 45.21875 89.085938 C 41.523438 98.660156 39.015625 109.582031 38.308594 125.589844 C 37.597656 141.613281 37.441406 146.726562 37.515625 187.554688 C 37.585938 228.367188 37.769531 233.496094 38.535156 249.53125 C 39.300781 265.523438 41.847656 276.433594 45.589844 285.996094 C 49.441406 295.882812 54.597656 304.242188 62.972656 312.585938 C 71.34375 320.929688 79.730469 326.042969 89.632812 329.867188 C 99.195312 333.566406 110.128906 336.085938 126.125 336.78125 C 142.160156 337.488281 147.273438 337.644531 188.085938 337.5625 C 228.914062 337.488281 234.027344 337.304688 250.066406 336.539062 C 266.058594 335.777344 276.964844 333.210938 286.527344 329.484375 C 296.417969 325.617188 304.789062 320.476562 313.117188 312.105469 C 321.449219 303.730469 326.578125 295.34375 330.402344 285.441406 C 334.097656 275.882812 336.621094 264.945312 337.316406 248.964844 C 338.007812 232.929688 338.179688 227.800781 338.109375 186.988281 C 338.039062 146.175781 337.839844 141.058594 337.089844 125.023438 C 336.324219 109.015625 333.773438 98.109375 330.035156 88.546875 C 326.167969 78.65625 321.023438 70.300781 312.652344 61.957031 C 304.277344 53.625 295.894531 48.484375 285.992188 44.671875 C 276.429688 40.976562 265.492188 38.453125 249.5 37.761719 C 233.460938 37.050781 228.332031 36.894531 187.519531 36.964844 C 146.707031 37.039062 141.59375 37.222656 125.558594 37.988281 M 127.3125 309.710938 C 112.667969 309.074219 104.703125 306.636719 99.390625 304.597656 C 92.367188 301.875 87.367188 298.617188 82.082031 293.390625 C 76.8125 288.132812 73.554688 283.132812 70.804688 276.136719 C 68.75 270.835938 66.273438 262.890625 65.578125 248.226562 C 64.828125 232.390625 64.65625 227.628906 64.585938 187.496094 C 64.515625 147.378906 64.65625 142.617188 65.351562 126.765625 C 65.972656 112.117188 68.425781 104.15625 70.464844 98.859375 C 73.183594 91.832031 76.429688 86.832031 81.671875 81.546875 C 86.925781 76.277344 91.925781 73.019531 98.9375 70.273438 C 104.238281 68.203125 112.183594 65.738281 126.832031 65.042969 C 142.683594 64.292969 147.429688 64.136719 187.5625 64.050781 C 227.695312 63.96875 232.457031 64.109375 248.308594 64.816406 C 262.957031 65.457031 270.917969 67.878906 276.214844 69.933594 C 283.242188 72.652344 288.257812 75.882812 293.527344 81.136719 C 298.796875 86.394531 302.070312 91.378906 304.804688 98.40625 C 306.871094 103.691406 309.335938 111.652344 310.03125 126.285156 C 310.78125 142.136719 310.953125 146.898438 311.023438 187.015625 C 311.09375 227.148438 310.953125 231.910156 310.257812 247.746094 C 309.621094 262.394531 307.183594 270.371094 305.144531 275.667969 C 302.421875 282.679688 299.179688 287.695312 293.921875 292.964844 C 288.667969 298.222656 283.679688 301.492188 276.65625 304.242188 C 271.371094 306.308594 263.410156 308.773438 248.777344 309.46875 C 232.921875 310.21875 228.179688 310.390625 188.03125 310.460938 C 147.910156 310.53125 143.152344 310.390625 127.300781 309.695312 M 249.851562 106.917969 C 249.867188 116.878906 257.96875 124.9375 267.914062 124.910156 C 277.875 124.898438 285.933594 116.808594 285.917969 106.847656 C 285.90625 96.890625 277.800781 88.828125 267.84375 88.84375 C 257.882812 88.859375 249.824219 96.960938 249.839844 106.90625 M 110.625 187.414062 C 110.710938 230.039062 145.332031 264.519531 187.945312 264.433594 C 230.570312 264.347656 265.066406 229.742188 264.980469 187.113281 C 264.898438 144.503906 230.273438 110.007812 187.648438 110.078125 C 145.035156 110.164062 110.542969 144.785156 110.625 187.414062 M 137.699219 187.355469 C 137.65625 159.6875 160.039062 137.207031 187.703125 137.164062 C 215.371094 137.109375 237.855469 159.492188 237.910156 187.171875 C 237.96875 214.839844 215.570312 237.320312 187.902344 237.363281 C 160.238281 237.417969 137.753906 215.023438 137.710938 187.355469 " fill-opacity="1" fill-rule="nonzero"/></g></svg>