<svg xmlns="http://www.w3.org/2000/svg" xmlns:xlink="http://www.w3.org/1999/xlink" width="500" zoomAndPan="magnify" viewBox="0 0 375 374.999991" height="500" preserveAspectRatio="xMidYMid meet" version="1.0"><path fill="#000000" d="M 142.234375 39.222656 C 142.234375 39.222656 78.515625 40.058594 79.34375 97.703125 C 80.167969 155.347656 91.757812 206.320312 110.792969 234.722656 C 129.824219 263.128906 178.640625 337.488281 234.085938 329.972656 C 234.085938 329.972656 261.394531 324.121094 282.078125 310.75 L 215.054688 258.113281 C 215.054688 258.113281 195.195312 270.648438 182.78125 253.9375 C 170.371094 237.226562 131.476562 159.53125 131.476562 159.53125 C 131.476562 159.53125 120.71875 134.464844 144.71875 123.605469 Z M 142.234375 39.222656 " fill-opacity="1" fill-rule="nonzero"/><path fill="#000000" d="M 149.683594 39.222656 C 149.683594 39.222656 154.648438 37.558594 163.75 42.566406 C 172.847656 47.574219 172.851562 51.75 172.851562 51.75 L 173.679688 109.402344 C 173.679688 109.402344 171.195312 112.746094 167.886719 116.082031 C 164.578125 119.425781 153.820312 124.441406 152.164062 121.097656 C 150.511719 117.757812 149.683594 39.222656 149.683594 39.222656 Z M 149.683594 39.222656 " fill-opacity="1" fill-rule="nonzero"/><path fill="#000000" d="M 220.625 251.953125 L 239.050781 242.242188 C 239.050781 242.242188 243.1875 241.410156 249.804688 245.582031 C 256.425781 249.769531 291.183594 277.339844 291.183594 277.339844 C 291.183594 277.339844 296.976562 282.351562 295.320312 288.199219 C 293.664062 294.046875 289.527344 306.582031 289.527344 306.582031 Z M 220.625 251.953125 " fill-opacity="1" fill-rule="nonzero"/></svg>